<?xml version="1.0" standalone="no"?>
<!DOCTYPE svg PUBLIC "-//W3C//DTD SVG 20010904//EN"
 "http://www.w3.org/TR/2001/REC-SVG-20010904/DTD/svg10.dtd">
<svg version="1.0" xmlns="http://www.w3.org/2000/svg"
 width="1280.000000pt" height="792.000000pt" viewBox="0 0 1280.000000 792.000000"
 preserveAspectRatio="xMidYMid meet">
<metadata>
Created by potrace 1.15, written by Peter Selinger 2001-2017
</metadata>
<g transform="translate(0.000000,792.000000) scale(0.100000,-0.100000)"
fill="#000000" stroke="none">
<path d="M7734 7899 c-144 -45 -210 -127 -221 -272 -7 -92 4 -170 62 -422 69
-302 81 -393 65 -505 -16 -116 -55 -185 -154 -274 -98 -87 -149 -118 -230
-141 -162 -47 -349 34 -548 237 -117 120 -238 277 -431 563 -242 359 -348 455
-496 455 -80 0 -148 -29 -210 -88 l-43 -41 4 -98 c4 -78 10 -110 31 -156 57
-125 190 -227 463 -357 224 -106 336 -165 409 -213 141 -95 238 -235 239 -344
1 -49 -2 -57 -31 -83 -46 -41 -101 -53 -218 -47 -120 6 -263 35 -402 80 -57
18 -103 32 -103 30 0 -1 14 -23 31 -48 88 -131 90 -238 5 -312 -58 -52 -129
-68 -286 -67 -110 1 -153 6 -232 27 -117 31 -268 106 -320 161 -52 52 -124
171 -285 466 -176 321 -280 477 -397 594 -144 144 -251 196 -419 204 -144 6
-210 -25 -230 -109 -33 -134 169 -448 409 -635 114 -89 211 -138 331 -168 112
-27 139 -39 226 -98 190 -129 331 -369 314 -535 -12 -111 -66 -177 -186 -225
-51 -21 -72 -23 -226 -23 -187 1 -259 14 -412 75 -243 97 -490 300 -720 591
-133 168 -145 185 -258 394 -111 205 -153 269 -223 346 -81 88 -192 137 -281
124 -37 -6 -54 -16 -100 -64 -31 -31 -69 -81 -86 -111 -27 -49 -30 -64 -30
-140 0 -78 3 -90 35 -150 22 -42 66 -97 125 -155 84 -84 133 -123 436 -348
149 -110 262 -217 288 -270 35 -72 46 -149 31 -214 -16 -74 -88 -150 -173
-181 -166 -63 -409 -43 -605 48 -79 37 -95 51 -350 302 -270 266 -379 360
-513 443 -193 119 -351 110 -459 -26 -54 -68 -65 -110 -50 -182 21 -104 82
-193 166 -243 91 -54 212 -84 439 -109 385 -42 493 -75 631 -192 200 -170 227
-214 186 -298 -28 -59 -85 -102 -247 -187 -76 -41 -143 -81 -149 -90 -7 -12
-1 -55 24 -158 31 -132 32 -144 20 -198 -10 -48 -20 -65 -62 -104 -92 -88
-227 -121 -493 -121 -140 0 -225 6 -380 27 -139 19 -219 25 -265 21 -335 -32
-686 -185 -754 -329 -47 -99 13 -206 152 -269 40 -18 64 -21 167 -21 151 1
233 22 549 140 403 150 568 169 765 87 63 -26 63 -26 58 -60 -16 -94 -99 -196
-199 -245 -78 -39 -205 -73 -376 -103 -243 -43 -373 -80 -443 -128 -86 -58
-128 -189 -79 -243 30 -31 78 -44 169 -44 141 0 304 31 781 149 463 115 586
122 564 35 -15 -58 -256 -271 -460 -407 -155 -102 -276 -168 -614 -336 -353
-175 -480 -248 -631 -360 -125 -93 -218 -191 -308 -326 -97 -145 -154 -256
-294 -570 -69 -154 -143 -318 -164 -365 -22 -47 -46 -109 -53 -139 -16 -67 -9
-164 17 -222 25 -56 84 -114 130 -130 46 -15 149 -7 194 15 100 48 160 129
243 326 208 491 550 980 1011 1445 279 282 435 414 607 514 409 237 952 465
1348 567 169 44 346 57 398 30 67 -35 64 -98 -11 -208 -36 -53 -75 -88 -251
-220 -268 -201 -325 -231 -598 -303 -306 -81 -409 -122 -534 -210 -108 -77
-193 -216 -194 -316 0 -56 32 -95 89 -105 46 -9 169 9 252 36 98 33 284 128
369 188 101 72 143 114 198 197 104 157 370 383 555 471 232 110 584 129 874
47 42 -11 62 -25 101 -69 27 -30 62 -80 78 -112 25 -49 29 -68 29 -142 0 -76
-4 -93 -32 -150 -78 -160 -212 -267 -713 -575 -124 -77 -241 -155 -261 -175
-51 -49 -67 -105 -44 -153 35 -75 142 -120 285 -120 121 0 187 24 268 96 31
29 93 79 137 112 118 89 268 243 470 485 292 348 450 493 654 598 119 61 171
75 259 70 91 -5 154 -42 199 -117 89 -149 52 -370 -87 -511 -65 -67 -144 -108
-231 -120 -35 -5 -97 -14 -138 -20 -182 -26 -299 -145 -289 -295 5 -82 44
-147 112 -190 42 -26 59 -30 115 -29 80 0 139 25 267 112 188 126 257 229 385
576 104 282 184 421 293 511 25 20 121 75 212 121 140 70 175 84 215 84 36 0
55 -6 78 -26 72 -61 68 -197 -13 -438 -67 -198 -74 -237 -52 -271 33 -50 108
-25 202 69 54 55 74 84 120 183 103 221 116 245 147 279 57 66 111 79 182 44
50 -24 69 -41 127 -112 111 -137 204 -359 237 -565 15 -97 -3 -474 -35 -718
-23 -174 -28 -249 -29 -435 0 -252 8 -299 70 -425 45 -90 169 -251 223 -289
123 -87 262 8 391 268 122 246 137 409 60 641 -40 118 -106 244 -267 502 -156
252 -219 366 -266 488 -97 253 -86 472 36 680 52 88 183 220 267 269 176 102
370 120 536 49 33 -14 108 -38 166 -53 180 -48 308 -118 442 -240 185 -170
318 -384 537 -869 55 -123 116 -253 134 -290 18 -36 73 -165 120 -286 194
-490 310 -654 490 -695 127 -28 347 92 410 223 52 112 43 238 -29 385 -120
246 -372 503 -718 734 -224 150 -323 225 -437 335 -151 144 -230 253 -270 373
-49 145 1 288 122 356 48 26 62 29 144 29 84 0 95 -2 167 -38 93 -46 200 -144
358 -328 123 -144 222 -238 277 -265 83 -42 206 -12 274 65 26 29 30 40 25 77
-9 82 -88 160 -352 349 -221 158 -316 249 -357 341 -24 57 -21 78 31 189 114
243 297 291 571 149 164 -84 335 -229 595 -505 177 -186 464 -415 670 -534
274 -158 409 -140 423 54 18 253 -160 459 -547 631 -58 26 -234 96 -391 155
-581 219 -736 301 -920 485 -70 69 -106 115 -133 167 l-38 72 53 30 c153 87
278 46 650 -216 236 -166 348 -223 471 -238 53 -7 61 -5 97 20 46 32 80 81 80
117 0 36 -45 98 -103 142 -83 62 -307 165 -677 312 -361 143 -587 246 -680
309 -125 85 -200 164 -182 191 9 13 105 51 162 64 68 15 237 12 329 -5 44 -9
174 -43 288 -76 221 -63 521 -129 588 -129 50 0 120 31 135 60 16 30 14 108
-4 151 -21 51 -89 138 -137 176 -148 117 -349 136 -794 77 -432 -57 -654 -26
-805 114 -51 46 -51 48 -52 107 -1 120 42 195 141 245 151 76 250 83 994 70
643 -10 804 -5 977 30 110 22 161 41 208 77 94 71 79 172 -45 304 -180 190
-463 230 -879 124 -158 -41 -309 -97 -589 -220 -340 -150 -587 -221 -800 -232
-78 -3 -135 -1 -163 6 -125 34 -147 148 -56 296 87 141 98 166 98 229 0 85
-21 121 -91 153 -36 17 -81 28 -124 31 -97 7 -156 -24 -247 -126 -185 -209
-219 -236 -305 -248 -94 -13 -225 50 -272 130 -40 69 -42 121 -6 279 36 159
63 228 171 427 160 297 210 415 210 499 0 46 -30 95 -72 117 -19 10 -65 19
-109 22 -133 8 -228 -39 -293 -146 -77 -127 -106 -243 -156 -631 -38 -288 -52
-348 -95 -398 -82 -95 -234 -145 -374 -123 -206 33 -400 158 -500 325 -60 99
-85 200 -85 345 0 143 7 175 109 490 78 243 111 382 101 434 -16 85 -78 105
-202 65z"/>
<path d="M4314 7891 c-17 -12 -43 -44 -59 -73 -36 -65 -38 -158 -6 -231 49
-112 161 -196 483 -364 331 -171 421 -236 542 -386 49 -62 83 -79 102 -52 42
57 -78 348 -234 570 -77 108 -306 335 -422 417 -169 120 -332 168 -406 119z"/>
<path d="M1130 7322 c-79 -27 -113 -46 -149 -87 -59 -67 -37 -163 62 -271 110
-120 244 -192 567 -302 317 -109 443 -167 550 -254 114 -93 148 -100 198 -44
54 61 53 176 -1 269 -34 58 -231 263 -340 354 -173 144 -393 273 -552 323 -99
31 -260 37 -335 12z"/>
<path d="M1470 5158 c-25 -14 -58 -44 -75 -67 -25 -36 -30 -52 -30 -105 0 -50
5 -70 24 -98 57 -82 149 -113 300 -98 53 5 138 10 190 10 113 0 164 14 197 53
43 52 25 118 -51 185 -52 46 -147 82 -215 82 -21 0 -64 12 -96 27 -85 39 -184
43 -244 11z"/>
<path d="M3265 1790 c-34 -22 -252 -250 -334 -349 -124 -150 -236 -355 -267
-486 -15 -68 -17 -215 -2 -230 16 -17 89 -16 139 0 100 34 185 148 229 310 29
107 61 160 208 344 143 178 178 230 193 285 14 51 5 83 -33 118 -36 34 -88 37
-133 8z"/>
<path d="M6722 994 c-71 -21 -127 -61 -213 -153 -227 -242 -351 -589 -283
-793 l16 -51 55 6 c153 16 263 136 342 373 16 49 50 175 75 279 24 105 55 224
69 267 l24 76 -22 4 c-12 3 -40 -1 -63 -8z"/>
</g>
</svg>
